<svg width="44" height="25" viewBox="0 0 44 25" fill="none" xmlns="http://www.w3.org/2000/svg">
<path d="M40.0735 4.76861C39.8962 4.45591 39.605 4.26829 39.3011 4.26829H33.4133V1.17261C33.4133 0.531582 32.9828 0 32.4636 0H11.1281C10.6089 0 10.1784 0.531582 10.1784 1.17261V20.122C10.1784 20.763 10.6089 21.2946 11.1281 21.2946H13.8124C14.3062 23.4209 15.9017 25 17.7756 25C19.6496 25 21.245 23.4365 21.7389 21.2946H32.261C32.7548 23.4209 34.3503 25 36.2242 25C38.0982 25 39.6936 23.4365 40.1875 21.2946H42.1501C42.6692 21.2946 43.0997 20.763 43.0997 20.122V10.4753C43.0997 10.2251 43.0364 9.99062 42.9225 9.803L40.0735 4.76861ZM41.2131 10.8193H36.9586V6.62914H38.82L41.2131 10.8193ZM12.0777 2.36085H31.514V18.965H21.8275C21.4603 16.6041 19.7889 14.8218 17.7756 14.8218C15.7624 14.8218 14.0783 16.6041 13.7238 18.965H12.0777V2.36085ZM17.7756 22.6548C16.5474 22.6548 15.5471 21.4196 15.5471 19.9031C15.5471 18.3865 16.5474 17.1513 17.7756 17.1513C19.0039 17.1513 20.0042 18.3865 20.0042 19.9031C20.0042 21.4196 19.0039 22.6548 17.7756 22.6548ZM36.2369 22.6548C35.0087 22.6548 34.0084 21.4196 34.0084 19.9031C34.0084 18.3865 35.0087 17.1513 36.2369 17.1513C37.4651 17.1513 38.4654 18.3865 38.4654 19.9031C38.4654 21.4196 37.4651 22.6548 36.2369 22.6548ZM40.2888 18.965C39.9216 16.6041 38.2502 14.8218 36.2369 14.8218C35.148 14.8218 34.1477 15.3533 33.4133 16.2133V6.62914H35.0467V11.9919C35.0467 12.6329 35.4772 13.1645 35.9963 13.1645H41.2257V18.965H40.2888Z" fill="white"/>
<path d="M1.04963 2.36047H7.82381C8.34296 2.36047 8.77347 1.82889 8.77347 1.18787C8.77347 0.546841 8.34296 0.0152588 7.82381 0.0152588H1.04963C0.530485 0.0152588 0.0999756 0.546841 0.0999756 1.18787C0.0999756 1.82889 0.530485 2.36047 1.04963 2.36047Z" fill="white"/>
<path d="M7.82309 4.28467H2.60633C2.08719 4.28467 1.65668 4.81625 1.65668 5.45728C1.65668 6.0983 2.08719 6.62988 2.60633 6.62988H7.82309C8.34224 6.62988 8.77275 6.0983 8.77275 5.45728C8.77275 4.81625 8.3549 4.28467 7.82309 4.28467Z" fill="white"/>
<path d="M7.82431 8.55103H4.53217C4.01303 8.55103 3.58252 9.08261 3.58252 9.72363C3.58252 10.3647 4.01303 10.8962 4.53217 10.8962H7.82431C8.34345 10.8962 8.77396 10.3647 8.77396 9.72363C8.77396 9.08261 8.35612 8.55103 7.82431 8.55103Z" fill="white"/>
<path d="M7.82398 12.8204H6.68439C6.16525 12.8204 5.73474 13.352 5.73474 13.993C5.73474 14.6341 6.16525 15.1657 6.68439 15.1657H7.82398C8.34312 15.1657 8.77363 14.6341 8.77363 13.993C8.77363 13.352 8.35578 12.8204 7.82398 12.8204Z" fill="white"/>
</svg>
